<?xml version="1.0" encoding="utf-8"?>
<!-- Generator: Adobe Illustrator 22.0.0, SVG Export Plug-In . SVG Version: 6.00 Build 0)  -->
<svg version="1.1" id="Ñëîé_1" xmlns="http://www.w3.org/2000/svg" xmlns:xlink="http://www.w3.org/1999/xlink" x="0px" y="0px"
	 viewBox="0 0 783.1 249" style="enable-background:new 0 0 783.1 249;" xml:space="preserve">
<style type="text/css">
	.st0{fill:#1B1B1B;}
	.st1{fill:#F53743;}
</style>
<g>
	<g>
		<path class="st0" d="M274.5,79.9V164h-13.8v-36.4h-36V164h-13.8V79.9h13.8v34.5h36V79.9H274.5z"/>
		<path class="st0" d="M344.7,103.9l-23.1,62c-5.6,15.3-15.5,22.9-29.3,22.1v-12.1c8.4,0.5,13-3.8,16-11.8l0.6-1.2l-25.5-59h14.2
			l17.9,43.6l15.4-43.6H344.7z"/>
		<path class="st0" d="M416.8,133.9c0,17.9-13.6,31.6-29.9,31.6c-9.4,0-16.5-3.8-21-10.1V188h-13v-84.1h13v8.6
			c4.6-6.4,11.7-10.2,21-10.2C403.2,102.3,416.8,116.2,416.8,133.9z M403.8,133.9c0-11.2-8.2-19.2-19-19.2s-19,8-19,19.2
			s8.2,19.2,19,19.2S403.8,145.1,403.8,133.9z"/>
		<path class="st0" d="M458,153.6c7.2,0,12.6-3.2,15.5-7.4l10.7,6.2c-5.5,8.2-14.5,13.1-26.3,13.1c-19.8,0-32.7-13.6-32.7-31.6
			c0-17.8,12.9-31.6,31.7-31.6c17.9,0,30.1,14.4,30.1,31.7c0,1.8-0.2,3.7-0.5,5.4h-47.8C440.8,148.8,448.4,153.6,458,153.6z
			 M474,128.9c-1.8-10.3-9.4-14.8-17.2-14.8c-9.7,0-16.3,5.8-18.1,14.8H474z"/>
		<path class="st0" d="M529.9,102.8v14.1c-8.5-0.6-18.5,3.4-18.5,16.8V164h-13v-60.1h13V114C515.1,105.8,522.4,102.8,529.9,102.8z"
			/>
		<path class="st0" d="M539.6,76.3h13V164h-13V76.3z"/>
		<path class="st0" d="M564.2,133.9c0-17.9,14.2-31.6,31.7-31.6c17.7,0,31.7,13.7,31.7,31.6c0,17.8-14.1,31.6-31.7,31.6
			C578.4,165.5,564.2,151.7,564.2,133.9z M614.6,133.9c0-10.9-8.2-19-18.7-19s-18.7,8-18.7,19s8.2,19,18.7,19
			S614.6,144.9,614.6,133.9z"/>
		<path class="st0" d="M636,133.9c0-17.9,14.2-31.6,31.7-31.6c17.7,0,31.7,13.7,31.7,31.6c0,17.8-14.1,31.6-31.7,31.6
			C650.2,165.5,636,151.7,636,133.9z M686.5,133.9c0-10.9-8.2-19-18.7-19s-18.7,8-18.7,19s8.2,19,18.7,19S686.5,144.9,686.5,133.9z"
			/>
		<path class="st0" d="M728.6,116.4v28.8c0,7.7,5,7.6,14.9,7.1V164c-19.9,2.4-27.9-3.1-27.9-18.7v-28.8h-11.1v-12.5h11.1v-13l13-3.8
			v16.8h14.9v12.5H728.6z"/>
	</g>
</g>
<g>
	<path class="st1" d="M119.4,116.7"/>
	<path class="st1" d="M150.2,124.6c-10.5,0-18.9,8.5-18.9,18.9c0,10.5,8.5,18.9,18.9,18.9c10.5,0,18.9-8.5,18.9-18.9
		C169.1,133.1,160.7,124.6,150.2,124.6z"/>
	<polygon class="st1" points="125.3,96.6 125.3,96.6 125.3,96.6 	"/>
	<path class="st1" d="M142.2,100.9c-0.6-3.7-2.7-7.1-6-9.4c-6.6-4.6-15.7-3-20.3,3.6l-20,28.6c0,0,0,0,0,0c-1.5,2.2-4.5,2.7-6.7,1.2
		l0,0c-2.2-1.6-2.7-4.6-1.2-6.8l28.3-40.8c2.3-3.3,3.1-7.2,2.4-10.9c-0.6-3.7-2.7-7.1-6-9.4c-6.6-4.6-15.7-3-20.3,3.6l-55.1,79
		c-2.3,3.3-3.1,7.2-2.4,10.9c0.7,3.7,2.7,7.1,6,9.4c6.6,4.6,15.7,3,20.3-3.6L76.9,134c1.5-2.2,4.6-2.7,6.7-1.2l0,0
		c2.2,1.5,2.7,4.5,1.2,6.7c0,0,0,0,0,0l0,0c-2.3,3.3-3.1,7.2-2.4,10.9c0.7,3.7,2.7,7.1,6,9.4c6.6,4.6,15.7,3,20.3-3.6l20-28.6
		l11.1-15.9C142.1,108.5,142.9,104.5,142.2,100.9z"/>
</g>
</svg>
