<?xml version="1.0" encoding="utf-8"?>
<!-- Generator: Adobe Illustrator 22.0.0, SVG Export Plug-In . SVG Version: 6.00 Build 0)  -->
<svg version="1.1" id="Layer_1" xmlns="http://www.w3.org/2000/svg" xmlns:xlink="http://www.w3.org/1999/xlink" x="0px" y="0px"
	 viewBox="0 0 283.5 283.5" style="enable-background:new 0 0 283.5 283.5;" xml:space="preserve">
<style type="text/css">
	.st0{fill:#EF3A45;}
	.st1{clip-path:url(#SVGID_2_);}
</style>
<g>
	<path class="st0" d="M175.7,153.1c-7.4,0-13.3,6-13.3,13.3c0,7.4,6,13.3,13.3,13.3c7.4,0,13.3-6,13.3-13.3
		C189,159.1,183,153.1,175.7,153.1z"/>
	<polygon class="st0" points="158.2,133.4 158.2,133.4 158.2,133.4 	"/>
	<path class="st0" d="M170.1,136.4c-0.5-2.6-1.9-5-4.2-6.6c-4.6-3.2-11-2.1-14.3,2.5l-14.1,20.1c0,0,0,0,0,0
		c-1.1,1.5-3.2,1.9-4.7,0.8l0,0c-1.5-1.1-1.9-3.2-0.8-4.8l19.9-28.7c1.6-2.3,2.1-5.1,1.7-7.6c-0.5-2.6-1.9-5-4.2-6.6
		c-4.6-3.2-11-2.1-14.3,2.5l-38.8,55.6c-1.6,2.3-2.1,5.1-1.7,7.7c0.5,2.6,1.9,5,4.2,6.6c4.6,3.2,11,2.1,14.3-2.5l11-15.7
		c1.1-1.5,3.2-1.9,4.7-0.8l0,0c1.5,1.1,1.9,3.2,0.8,4.7c0,0,0,0,0,0l0,0c-1.6,2.3-2.2,5.1-1.7,7.7c0.5,2.6,1.9,5,4.2,6.6
		c4.6,3.2,11,2.1,14.3-2.5l14.1-20.1l7.8-11.2C170,141.7,170.5,139,170.1,136.4z"/>
</g>
</svg>
