<?xml version="1.0" encoding="utf-8"?>
<!-- Generator: Adobe Illustrator 22.0.0, SVG Export Plug-In . SVG Version: 6.00 Build 0)  -->
<svg version="1.1" id="Layer_1" xmlns="http://www.w3.org/2000/svg" xmlns:xlink="http://www.w3.org/1999/xlink" x="0px" y="0px"
	 viewBox="0 0 283.5 283.5" style="enable-background:new 0 0 283.5 283.5;" xml:space="preserve">
<style type="text/css">
	.st0{clip-path:url(#SVGID_2_);}
</style>
<g>
	<defs>
		<rect id="SVGID_1_" x="0" y="0" width="283.5" height="283.5"/>
	</defs>
	<clipPath id="SVGID_2_">
		<use xlink:href="#SVGID_1_"  style="overflow:visible;"/>
	</clipPath>
	<g class="st0">
		<g>
			<path d="M175.7,153.1c-7.4,0-13.3,6-13.3,13.3c0,7.4,6,13.3,13.3,13.3c7.4,0,13.3-6,13.3-13.3C189,159.1,183,153.1,175.7,153.1z"
				/>
			<path d="M170.1,136.4c-0.5-2.6-1.9-5-4.2-6.6c-4.6-3.2-11-2.1-14.3,2.5l-14.1,20.1c0,0,0,0,0,0c-1.1,1.5-3.2,1.9-4.7,0.8l0,0
				c-1.5-1.1-1.9-3.2-0.8-4.8l19.9-28.7c1.6-2.3,2.1-5.1,1.7-7.6c-0.5-2.6-1.9-5-4.2-6.6c-4.6-3.2-11-2.1-14.3,2.5l-38.8,55.6
				c-1.6,2.3-2.1,5.1-1.7,7.7c0.5,2.6,1.9,5,4.2,6.6c4.6,3.2,11,2.1,14.3-2.5l11-15.7c1.1-1.5,3.2-1.9,4.7-0.8l0,0
				c1.5,1.1,1.9,3.2,0.8,4.7c0,0,0,0,0,0l0,0c-1.6,2.3-2.2,5.1-1.7,7.7c0.5,2.6,1.9,5,4.2,6.6c4.6,3.2,11,2.1,14.3-2.5l14.1-20.1
				l7.8-11.2C170,141.7,170.5,139,170.1,136.4z"/>
		</g>
		<g>
			<path d="M34,11.3c-7.4,0-13.3,6-13.3,13.3C20.6,32,26.6,38,34,38c7.4,0,13.3-6,13.3-13.3C47.3,17.3,41.3,11.3,34,11.3z"/>
			<path d="M28.3-5.4c-0.5-2.6-1.9-5-4.2-6.6c-4.6-3.2-11-2.1-14.3,2.5L-4.2,10.7c0,0,0,0,0,0c-1.1,1.5-3.2,1.9-4.7,0.8l0,0
				c-1.5-1.1-1.9-3.2-0.8-4.8l19.9-28.7c1.6-2.3,2.1-5.1,1.7-7.6c-0.5-2.6-1.9-5-4.2-6.6c-4.6-3.2-11-2.1-14.3,2.5l-38.8,55.6
				c-1.6,2.3-2.1,5.1-1.7,7.7c0.5,2.6,1.9,5,4.2,6.6c4.6,3.2,11,2.1,14.3-2.5l11-15.7c1.1-1.5,3.2-1.9,4.7-0.8l0,0
				c1.5,1.1,1.9,3.2,0.8,4.7c0,0,0,0,0,0l0,0c-1.6,2.3-2.2,5.1-1.7,7.7c0.5,2.6,1.9,5,4.2,6.6c4.6,3.2,11,2.1,14.3-2.5l14.1-20.1
				l7.8-11.2C28.3,0,28.8-2.8,28.3-5.4z"/>
		</g>
		<g>
			<path d="M28.3,278.1c-0.5-2.6-1.9-5-4.2-6.6c-4.6-3.2-11-2.1-14.3,2.5l-14.1,20.1c0,0,0,0,0,0c-1.1,1.5-3.2,1.9-4.7,0.8l0,0
				c-1.5-1.1-1.9-3.2-0.8-4.8l19.9-28.7c1.6-2.3,2.1-5.1,1.7-7.6c-0.5-2.6-1.9-5-4.2-6.6c-4.6-3.2-11-2.1-14.3,2.5l-38.8,55.6
				c-1.6,2.3-2.1,5.1-1.7,7.7c0.5,2.6,1.9,5,4.2,6.6c4.6,3.2,11,2.1,14.3-2.5l11-15.7c1.1-1.5,3.2-1.9,4.7-0.8l0,0
				c1.5,1.1,1.9,3.2,0.8,4.7c0,0,0,0,0,0l0,0c-1.6,2.3-2.2,5.1-1.7,7.7c0.5,2.6,1.9,5,4.2,6.6c4.6,3.2,11,2.1,14.3-2.5l14.1-20.1
				l7.8-11.2C28.3,283.4,28.8,280.7,28.3,278.1z"/>
		</g>
		<g>
			<path d="M311.7,278c-0.5-2.6-1.9-5-4.2-6.6c-4.6-3.2-11-2.1-14.3,2.5L279.2,294c0,0,0,0,0,0c-1.1,1.5-3.2,1.9-4.7,0.8l0,0
				c-1.5-1.1-1.9-3.2-0.8-4.8l19.9-28.7c1.6-2.3,2.1-5.1,1.7-7.6c-0.5-2.6-1.9-5-4.2-6.6c-4.6-3.2-11-2.1-14.3,2.5L238,305.3
				c-1.6,2.3-2.1,5.1-1.7,7.7c0.5,2.6,1.9,5,4.2,6.6c4.6,3.2,11,2.1,14.3-2.5l11-15.7c1.1-1.5,3.2-1.9,4.7-0.8l0,0
				c1.5,1.1,1.9,3.2,0.8,4.7c0,0,0,0,0,0l0,0c-1.6,2.3-2.2,5.1-1.7,7.7c0.5,2.6,1.9,5,4.2,6.6c4.6,3.2,11,2.1,14.3-2.5l14.1-20.1
				l7.8-11.2C311.7,283.4,312.2,280.6,311.7,278z"/>
		</g>
		<g>
			<path d="M311.7-5.3c-0.5-2.6-1.9-5-4.2-6.6c-4.6-3.2-11-2.1-14.3,2.5l-14.1,20.1c0,0,0,0,0,0c-1.1,1.5-3.2,1.9-4.7,0.8l0,0
				c-1.5-1.1-1.9-3.2-0.8-4.8l19.9-28.7c1.6-2.3,2.1-5.1,1.7-7.6c-0.5-2.6-1.9-5-4.2-6.6c-4.6-3.2-11-2.1-14.3,2.5L238,21.9
				c-1.6,2.3-2.1,5.1-1.7,7.7c0.5,2.6,1.9,5,4.2,6.6c4.6,3.2,11,2.1,14.3-2.5l11-15.7c1.1-1.5,3.2-1.9,4.7-0.8l0,0
				c1.5,1.1,1.9,3.2,0.8,4.7c0,0,0,0,0,0l0,0c-1.6,2.3-2.2,5.1-1.7,7.7c0.5,2.6,1.9,5,4.2,6.6c4.6,3.2,11,2.1,14.3-2.5l14.1-20.1
				l7.8-11.2C311.7,0,312.2-2.8,311.7-5.3z"/>
		</g>
		<path d="M13.2,143.5c1.1-8.7-6.2-16.1-15-15c-5.9,0.8-10.7,5.5-11.5,11.5c-1.1,8.7,6.2,16,14.9,14.9
			C7.7,154.2,12.5,149.4,13.2,143.5z"/>
		<path d="M154.9,1.7c1.1-8.7-6.2-16.1-15-15c-5.9,0.8-10.7,5.5-11.5,11.5c-1.1,8.7,6.2,16,14.9,14.9
			C149.4,12.5,154.2,7.7,154.9,1.7z"/>
		<path d="M154.9,285.2c1.1-8.7-6.2-16.1-15-15c-5.9,0.8-10.7,5.5-11.5,11.5c-1.1,8.7,6.2,16,14.9,14.9
			C149.4,295.9,154.2,291.1,154.9,285.2z"/>
		<path d="M296.8,141.7c0-7.4-6-13.3-13.3-13.3c-7.4,0-13.3,6-13.3,13.3c0,7.4,6,13.3,13.3,13.3
			C290.8,155.1,296.8,149.1,296.8,141.7z"/>
	</g>
</g>
</svg>
